:FULLY-SPECIFIED
:FORCE-ALL-JOINTS-BE-3DOF
:DEGREES
204
root -2.89879 16.3082 -36.1134 3.84716 0.637593 -2.90674
lfemur -23.881 6.66476 -8.23685
ltibia 48.4262 0 0
lfoot -23.6561 0.42197 0
ltoes -9.71873 0 0
rfemur -23.834 -7.45098 14.6266
rtibia 50.4799 0 0
rfoot -27.4995 2.05319 0
rtoes -8.2693 0 0
lowerback 7.26879 1.9459 -1.72841
upperback -3.77481 2.52618 1.31737
thorax -8.20305 1.37038 1.99961
lowerneck -3.3864 -3.89909 -6.57194
upperneck 6.82824 -5.26027 5.99982
head 3.21666 -2.59176 2.95714
lclavicle 1.85347e-14 3.31732e-15 0
lhumerus -26.5931 -1.7187 88.6775
lradius 24.2376 0 0
lwrist -31.4621 0 0
lhand -28.3061 30.1622 0
lfingers 7.12502 0 0
lthumb -1.68154 60.1353 0
rclavicle 1.85347e-14 3.31732e-15 0
rhumerus -32.2462 1.96623 -79.8945
rradius 30.4223 0 0
rwrist 3.20831 0 0
rhand -19.8511 -26.9021 0
rfingers 7.12502 0 0
rthumb 6.48359 -56.7829 0
205
root -2.89945 16.3061 -36.1122 3.83701 0.646962 -2.90848
lfemur -23.8852 6.66896 -8.23057
ltibia 48.4585 0 0
lfoot -23.6757 0.418814 0
ltoes -9.72746 0 0
rfemur -23.8321 -7.46612 14.6284
rtibia 50.5114 0 0
rfoot -27.518 2.04692 0
rtoes -8.28261 0 0
lowerback 7.26896 1.94594 -1.72032
upperback -3.77191 2.52695 1.3156
thorax -8.19956 1.3702 1.99312
lowerneck -3.38365 -3.89975 -6.5711
upperneck 6.82752 -5.26169 6.00438
head 3.21615 -2.59234 2.95853
lclavicle 1.83858e-14 4.27934e-15 0
lhumerus -26.5905 -1.73921 88.6948
lradius 24.2531 0 0
lwrist -31.449 0 0
lhand -28.3048 30.1412 0
lfingers 7.12502 0 0
lthumb -1.6803 60.1143 0
rclavicle 1.83858e-14 4.27934e-15 0
rhumerus -32.2484 1.96528 -79.892
rradius 30.4192 0 0
rwrist 3.2052 0 0
rhand -19.8699 -26.8899 0
rfingers 7.12502 0 0
rthumb 6.46536 -56.7712 0
206
root -2.90011 16.304 -36.1109 3.82312 0.658439 -2.91131
lfemur -23.8934 6.67785 -8.22033
ltibia 48.5095 0 0
lfoot -23.7057 0.414934 0
ltoes -9.74404 0 0
rfemur -23.8327 -7.48907 14.6321
rtibia 50.5613 0 0
rfoot -27.547 2.04025 0
rtoes -8.30479 0 0
lowerback 7.26875 1.94623 -1.70986
upperback -3.76716 2.52824 1.31341
thorax -8.19375 1.3701 1.98482
lowerneck -3.38198 -3.9009 -6.56995
upperneck 6.82776 -5.26387 6.01042
head 3.21629 -2.59322 2.96034
lclavicle 1.82659e-14 5.38524e-15 0
lhumerus -26.585 -1.76708 88.719
lradius 24.2731 0 0
lwrist -31.4321 0 0
lhand -28.3039 30.1119 0
lfingers 7.12502 0 0
lthumb -1.67949 60.085 0
rclavicle 1.82659e-14 5.38524e-15 0
rhumerus -32.2487 1.96701 -79.8913
rradius 30.4187 0 0
rwrist 3.19827 0 0
rhand -19.8935 -26.8754 0
rfingers 7.12502 0 0
rthumb 6.44263 -56.7574 0
207
root -2.90077 16.3018 -36.1097 3.80484 0.672215 -2.91549
lfemur -23.9066 6.69267 -8.20524
ltibia 48.5831 0 0
lfoot -23.7484 0.410261 0
ltoes -9.77042 0 0
rfemur -23.8366 -7.52149 14.6382
rtibia 50.6338 0 0
rfoot -27.5889 2.03337 0
rtoes -8.33791 0 0
lowerback 7.26804 1.94681 -1.69668
upperback -3.76016 2.53018 1.31075
thorax -8.1851 1.37011 1.97445
lowerneck -3.38184 -3.90263 -6.56844
upperneck 6.82931 -5.26696 6.01819
head 3.21729 -2.59447 2.96262
lclavicle 1.81912e-14 6.63255e-15 0
lhumerus -26.5759 -1.80356 88.7514
lradius 24.298 0 0
lwrist -31.4109 0 0
lhand -28.3037 30.0725 0
lfingers 7.12502 0 0
lthumb -1.67929 60.0456 0
rclavicle 1.81912e-14 6.63255e-15 0
rhumerus -32.2463 1.97227 -79.8929
rradius 30.4218 0 0
rwrist 3.18651 0 0
rhand -19.9222 -26.8585 0
rfingers 7.12502 0 0
rthumb 6.41491 -56.7414 0
208
root -2.90143 16.2997 -36.1084 3.7815 0.688479 -2.92126
lfemur -23.9257 6.71466 -8.18438
ltibia 48.6835 0 0
lfoot -23.8061 0.404727 0
ltoes -9.80859 0 0
rfemur -23.8448 -7.56504 14.6471
rtibia 50.7331 0 0
rfoot -27.6459 2.02646 0
rtoes -8.38403 0 0
lowerback 7.26673 1.94778 -1.68046
upperback -3.75049 2.5329 1.30758
thorax -8.17307 1.37027 1.96177
lowerneck -3.38369 -3.90508 -6.5665
upperneck 6.83248 -5.27112 6.02792
head 3.21938 -2.59615 2.96544
lclavicle 1.81775e-14 8.01884e-15 0
lhumerus -26.5623 -1.84991 88.7935
lradius 24.3284 0 0
lwrist -31.3847 0 0
lhand -28.3044 30.0217 0
lfingers 7.12502 0 0
lthumb -1.67989 59.9948 0
rclavicle 1.81775e-14 8.01884e-15 0
rhumerus -32.2405 1.98192 -79.8975
rradius 30.4294 0 0
rwrist 3.16892 0 0
rhand -19.9566 -26.839 0
rfingers 7.12502 0 0
rthumb 6.38171 -56.723 0
209
root -2.90209 16.2976 -36.1072 3.75247 0.707424 -2.92889
lfemur -23.9518 6.74503 -8.15686
ltibia 48.8147 0 0
lfoot -23.8809 0.398264 0
ltoes -9.86049 0 0
rfemur -23.858 -7.62135 14.6594
rtibia 50.8633 0 0
rfoot -27.7204 2.01969 0
rtoes -8.44519 0 0
lowerback 7.26468 1.94918 -1.66084
upperback -3.73773 2.53651 1.30386
thorax -8.15712 1.3706 1.94654
lowerneck -3.38798 -3.90834 -6.56409
upperneck 6.83762 -5.27652 6.03983
head 3.22278 -2.59832 2.96885
lclavicle 1.82408e-14 9.54166e-15 0
lhumerus -26.5436 -1.90738 88.8463
lradius 24.3649 0 0
lwrist -31.3531 0 0
lhand -28.306 29.9577 0
lfingers 7.12502 0 0
lthumb -1.68147 59.9308 0
rclavicle 1.82408e-14 9.54166e-15 0
rhumerus -32.2306 1.99682 -79.9057
rradius 30.4424 0 0
rwrist 3.14448 0 0
rhand -19.9972 -26.817 0
rfingers 7.12502 0 0
rthumb 6.34254 -56.7021 0
210
root -2.90237 16.2953 -36.1067 3.74335 0.718158 -2.92616
lfemur -23.9569 6.74846 -8.15653
ltibia 48.8418 0 0
lfoot -23.8977 0.391703 0
ltoes -9.8626 0 0
rfemur -23.8569 -7.62983 14.6559
rtibia 50.8916 0 0
rfoot -27.7371 2.00817 0
rtoes -8.45786 0 0
lowerback 7.2684 1.9483 -1.66259
upperback -3.73366 2.53499 1.30295
thorax -8.15485 1.36986 1.94673
lowerneck -3.391 -3.91047 -6.56465
upperneck 6.83649 -5.27958 6.04559
head 3.22347 -2.59962 2.97078
lclavicle 1.8897e-14 1.03753e-14 0
lhumerus -26.5375 -1.92271 88.86
lradius 24.3755 0 0
lwrist -31.3388 0 0
lhand -28.3057 29.9574 0
lfingers 7.12502 0 0
lthumb -1.68117 59.9305 0
rclavicle 1.8897e-14 1.03753e-14 0
rhumerus -32.23 1.9941 -79.9005
rradius 30.4354 0 0
rwrist 3.14653 0 0
rhand -19.9898 -26.8345 0
rfingers 7.12502 0 0
rthumb 6.34966 -56.7194 0
